<svg xmlns="http://www.w3.org/2000/svg" xmlns:xlink="http://www.w3.org/1999/xlink" width="1080" zoomAndPan="magnify" viewBox="0 0 810 809.999993" height="1080" preserveAspectRatio="xMidYMid meet" version="1.0"><defs><clipPath id="3e52dd1076"><path d="M 0 51.546875 L 201 51.546875 L 201 567 L 0 567 Z M 0 51.546875 " clip-rule="nonzero"/></clipPath></defs><g clip-path="url(#3e52dd1076)"><path fill="#22475b" d="M 47.011719 566.164062 L 200.960938 513.066406 L 200.960938 51.671875 L 0 177.640625 Z M 47.011719 566.164062 " fill-opacity="1" fill-rule="nonzero"/></g><path fill="#dbdbdb" d="M 270.863281 316.316406 L 270.863281 312.867188 L 273.066406 85.351562 C 243.632812 89.046875 216.140625 93.765625 196.101562 82.113281 L 185.554688 349.542969 C 213.9375 338.214844 242.09375 326.625 270.863281 316.316406 Z M 270.863281 316.316406 " fill-opacity="1" fill-rule="nonzero"/><path fill="#dbdbdb" d="M 41.246094 642.277344 L 241.21875 512.777344 L 249.140625 216.558594 L 196.050781 82.046875 L 22.664062 192.859375 Z M 41.246094 642.277344 " fill-opacity="1" fill-rule="nonzero"/><path fill="#22475b" d="M 86.863281 663.898438 L 287.824219 528.5625 L 287.824219 67.167969 L 86.863281 193.136719 L 47.011719 352.65625 Z M 86.863281 663.898438 " fill-opacity="1" fill-rule="nonzero"/><path fill="#325a75" d="M 0 642.277344 C 14.320312 653.898438 56.214844 665.488281 86.863281 663.898438 L 86.863281 193.136719 C 54.117188 192.207031 25.164062 187.042969 0 177.640625 Z M 0 642.277344 " fill-opacity="1" fill-rule="nonzero"/><path fill="#b53333" d="M 133.910156 587.933594 L 287.859375 534.835938 L 287.859375 67.167969 L 86.898438 193.136719 Z M 133.910156 587.933594 " fill-opacity="1" fill-rule="nonzero"/><path fill="#dbdbdb" d="M 128.125 664.046875 L 328.097656 534.542969 L 336.035156 232.050781 L 282.933594 97.542969 L 109.542969 208.339844 Z M 128.125 664.046875 " fill-opacity="1" fill-rule="nonzero"/><path fill="#dbdbdb" d="M 357.746094 338.085938 L 357.746094 334.617188 L 359.929688 100.847656 C 330.496094 104.542969 303.003906 109.261719 282.964844 97.605469 L 272.433594 371.394531 C 300.835938 359.980469 328.988281 348.394531 357.746094 338.085938 Z M 357.746094 338.085938 " fill-opacity="1" fill-rule="nonzero"/><path fill="#b53333" d="M 173.761719 685.667969 L 374.722656 550.328125 L 374.722656 82.664062 L 173.761719 208.632812 L 133.910156 374.421875 Z M 173.761719 685.667969 " fill-opacity="1" fill-rule="nonzero"/><path fill="#cc4444" d="M 86.878906 664.046875 C 101.203125 675.667969 143.109375 687.253906 173.761719 685.667969 L 173.761719 208.632812 C 141.015625 207.722656 112.054688 202.558594 86.878906 193.136719 Z M 86.878906 664.046875 " fill-opacity="1" fill-rule="nonzero"/><path fill="#22475b" d="M 253.207031 597.074219 L 374.707031 555.160156 L 374.707031 155.355469 L 216.109375 254.777344 Z M 253.207031 597.074219 " fill-opacity="1" fill-rule="nonzero"/><path fill="#dbdbdb" d="M 248.652344 657.140625 L 406.472656 554.933594 L 412.742188 285.488281 L 370.835938 179.328125 L 233.992188 266.769531 Z M 248.652344 657.140625 " fill-opacity="1" fill-rule="nonzero"/><path fill="#dbdbdb" d="M 429.867188 399.886719 L 429.867188 397.148438 L 431.566406 181.921875 C 408.335938 184.855469 386.644531 188.566406 370.835938 179.328125 L 362.507812 426.078125 C 384.960938 417.164062 407.171875 408.023438 429.867188 399.886719 Z M 429.867188 399.886719 " fill-opacity="1" fill-rule="nonzero"/><path fill="#22475b" d="M 290.660156 675.261719 L 449.257812 568.433594 L 449.257812 168.628906 L 290.660156 268.050781 L 259.199219 429.613281 Z M 290.660156 675.261719 " fill-opacity="1" fill-rule="nonzero"/><path fill="#325a75" d="M 216.109375 657.140625 C 227.449219 666.316406 266.457031 676.507812 290.628906 675.261719 L 290.628906 268.050781 C 264.789062 267.320312 235.90625 262.230469 216.109375 254.777344 Z M 216.109375 657.140625 " fill-opacity="1" fill-rule="nonzero"/><path fill="#e08517" d="M 345.15625 608.53125 L 449.257812 572.617188 L 449.257812 240.757812 L 313.355469 325.945312 Z M 345.15625 608.53125 " fill-opacity="1" fill-rule="nonzero"/><path fill="#dbdbdb" d="M 341.253906 659.992188 L 476.472656 572.421875 L 481.835938 352.265625 L 445.9375 261.308594 L 328.683594 336.238281 Z M 341.253906 659.992188 " fill-opacity="1" fill-rule="nonzero"/><path fill="#dbdbdb" d="M 496.53125 436.46875 L 496.53125 434.117188 L 498.019531 263.527344 C 478.109375 266.039062 459.527344 269.21875 445.96875 261.308594 L 438.84375 482.582031 C 458.039062 474.914062 477.074219 443.4375 496.53125 436.46875 Z M 496.53125 436.46875 " fill-opacity="1" fill-rule="nonzero"/><path fill="#e08517" d="M 377.234375 675.519531 L 513.136719 583.992188 L 513.136719 252.148438 L 377.234375 337.324219 L 350.292969 485.578125 Z M 377.234375 675.519531 " fill-opacity="1" fill-rule="nonzero"/><path fill="#ff9f1c" d="M 313.355469 659.992188 C 323.078125 667.855469 356.511719 676.589844 377.234375 675.519531 L 377.234375 337.324219 C 355.105469 336.707031 330.351562 332.347656 313.355469 325.976562 Z M 313.355469 659.992188 " fill-opacity="1" fill-rule="nonzero"/><path fill="#b53333" d="M 409.035156 619.910156 L 513.136719 583.992188 L 513.136719 252.148438 L 377.234375 337.324219 Z M 409.035156 619.910156 " fill-opacity="1" fill-rule="nonzero"/><path fill="#dbdbdb" d="M 405.113281 671.386719 L 540.351562 583.800781 L 545.714844 363.644531 L 509.796875 272.6875 L 392.558594 347.617188 Z M 405.113281 671.386719 " fill-opacity="1" fill-rule="nonzero"/><path fill="#dbdbdb" d="M 560.40625 447.847656 L 560.40625 445.511719 L 561.878906 274.921875 C 541.988281 277.417969 523.390625 280.613281 509.847656 272.6875 L 502.71875 493.957031 C 521.914062 486.292969 540.949219 454.816406 560.40625 447.847656 Z M 560.40625 447.847656 " fill-opacity="1" fill-rule="nonzero"/><path fill="#b53333" d="M 441.109375 686.898438 L 577.011719 595.371094 L 577.011719 263.527344 L 441.109375 348.71875 L 414.167969 496.972656 Z M 441.109375 686.898438 " fill-opacity="1" fill-rule="nonzero"/><path fill="#cc4444" d="M 377.234375 671.386719 C 386.953125 679.234375 420.390625 687.96875 441.109375 686.898438 L 441.109375 348.71875 C 418.964844 348.085938 394.226562 343.726562 377.234375 337.371094 Z M 377.234375 671.386719 " fill-opacity="1" fill-rule="nonzero"/><path fill="#e08517" d="M 532.363281 726.804688 L 668.265625 635.277344 L 577.011719 297.160156 L 441.109375 382.347656 Z M 532.363281 726.804688 " fill-opacity="1" fill-rule="nonzero"/><path fill="#dbdbdb" d="M 457.972656 388.296875 L 571 318.066406 C 571 318.066406 601.164062 317.175781 625.871094 307.191406 L 617.21875 597.074219 Z M 457.972656 388.296875 " fill-opacity="1" fill-rule="nonzero"/><path fill="#e08517" d="M 594.960938 722.101562 L 730.863281 630.574219 L 639.609375 292.476562 L 503.707031 377.664062 Z M 594.960938 722.101562 " fill-opacity="1" fill-rule="nonzero"/><path fill="#ff9f1c" d="M 503.707031 377.664062 C 503.707031 377.664062 471.046875 384.84375 441.109375 382.347656 L 532.363281 726.804688 C 532.363281 726.804688 566.480469 734.566406 594.960938 722.101562 Z M 503.707031 377.664062 " fill-opacity="1" fill-rule="nonzero"/><path fill="#22475b" d="M 642.023438 690.578125 L 746.125 654.675781 L 746.125 322.816406 L 610.222656 408.007812 Z M 642.023438 690.578125 " fill-opacity="1" fill-rule="nonzero"/><path fill="#dbdbdb" d="M 638.101562 742.054688 L 773.339844 654.484375 L 778.703125 434.328125 L 742.800781 343.351562 L 625.546875 418.28125 Z M 638.101562 742.054688 " fill-opacity="1" fill-rule="nonzero"/><path fill="#dbdbdb" d="M 793.394531 518.464844 L 793.394531 516.128906 L 794.886719 345.539062 C 774.976562 348.035156 756.378906 351.230469 742.835938 343.304688 L 735.707031 564.59375 C 754.921875 556.976562 773.9375 525.484375 793.394531 518.464844 Z M 793.394531 518.464844 " fill-opacity="1" fill-rule="nonzero"/><path fill="#22475b" d="M 674.097656 757.566406 L 810 666.054688 L 810 334.195312 L 674.097656 419.386719 L 647.15625 567.640625 Z M 674.097656 757.566406 " fill-opacity="1" fill-rule="nonzero"/><path fill="#325a75" d="M 610.222656 742.136719 C 619.941406 749.980469 653.378906 758.734375 674.097656 757.648438 L 674.097656 419.386719 C 651.953125 418.753906 627.214844 414.394531 610.222656 408.039062 Z M 610.222656 742.136719 " fill-opacity="1" fill-rule="nonzero"/></svg>